<svg id="图层_1" data-name="图层 1" xmlns="http://www.w3.org/2000/svg" viewBox="0 0 400 400"><defs><style>.cls-1{fill:#af1b40;}</style></defs><title>logo</title><path class="cls-1" d="M178.52,186.31l-115.14,65v-15.2l101.69-57.41v-100l13.45-7.6ZM63.38,206.87l75.54-42.65V93.51l13.46-7.6v85.91l-89,50.25ZM191.2,187.33V1.37l-164.63,93a10.59,10.59,0,0,0-5.43,9.21v186l164.62-93a10.58,10.58,0,0,0,5.44-9.21"/><path class="cls-1" d="M336.37,222.07l-89-50.25V85.91l13.47,7.6v70.71l75.53,42.65Zm0,29.25-115.14-65V71.15l13.46,7.6v100l101.68,57.41Zm36.82-157-164.64-93v186a10.6,10.6,0,0,0,5.44,9.21l164.63,93v-186a10.61,10.61,0,0,0-5.43-9.21"/><path class="cls-1" d="M301.55,295.12,199.88,237.7,98.22,295.13l-13.46-7.6,115.12-65,115.13,65Zm-26.14,14.76-75.77-42.79-75.53,42.67-13.46-7.6,89-50.27,89.23,50.39Zm-81-98.64-164.63,93,164.63,93a11.07,11.07,0,0,0,10.87,0l164.63-93-164.63-93a11.1,11.1,0,0,0-10.87,0"/></svg>